{"accessors":[{"bufferView":0,"byteOffset":0,"componentType":5126,"count":522,"max":[1,0.5,1],"min":[-1,-0.5,-1],"normalized":false,"type":"VEC3"},{"bufferView":1,"byteOffset":0,"componentType":5126,"count":522,"max":[0.999969,0,0.999969,1],"min":[-0.999969,-0.011223,-1,1],"normalized":false,"type":"VEC4"},{"bufferView":2,"byteOffset":0,"componentType":5126,"count":522,"max":[1,1,1],"min":[-1,-1,-1],"normalized":false,"type":"VEC3"},{"bufferView":3,"byteOffset":0,"componentType":5126,"count":522,"max":[1,1],"min":[0,0],"normalized":false,"type":"VEC2"},{"bufferView":4,"byteOffset":0,"componentType":5125,"count":2304,"max":[521],"min":[0],"normalized":false,"type":"SCALAR"},{"bufferView":5,"byteOffset":0,"componentType":5126,"count":522,"max":[0.5,0.5,0.5],"min":[-0.5,-0.5,-0.5],"normalized":false,"type":"VEC3"},{"bufferView":6,"byteOffset":0,"componentType":5126,"count":522,"max":[0.999969,0,0.999969,1],"min":[-0.999969,-0.011223,-1,1],"normalized":false,"type":"VEC4"},{"bufferView":7,"byteOffset":0,"componentType":5126,"count":522,"max":[1,1,1],"min":[-1,-1,-1],"normalized":false,"type":"VEC3"},{"bufferView":8,"byteOffset":0,"componentType":5126,"count":522,"max":[1,1],"min":[0,0],"normalized":false,"type":"VEC2"},{"bufferView":9,"byteOffset":0,"componentType":5125,"count":2304,"max":[521],"min":[0],"normalized":false,"type":"SCALAR"},{"bufferView":10,"byteOffset":0,"componentType":5126,"count":2210,"max":[0.499434,0.5,0.499434],"min":[-0.499434,-0.5,-0.499434],"normalized":false,"type":"VEC3"},{"bufferView":11,"byteOffset":0,"componentType":5126,"count":2210,"max":[0.999969,0,0.999969,1],"min":[-0.999969,-0.011223,-1,1],"normalized":false,"type":"VEC4"},{"bufferView":12,"byteOffset":0,"componentType":5126,"count":2210,"max":[0.998995,1,0.999472],"min":[-0.998995,-1,-0.998773],"normalized":false,"type":"VEC3"},{"bufferView":13,"byteOffset":0,"componentType":5126,"count":2210,"max":[1,1],"min":[0,0],"normalized":false,"type":"VEC2"},{"bufferView":14,"byteOffset":0,"componentType":5125,"count":12672,"max":[2209],"min":[0],"normalized":false,"type":"SCALAR"},{"bufferView":15,"byteOffset":0,"componentType":5126,"count":2210,"max":[0.499434,0.5,0.499434],"min":[-0.499434,-0.5,-0.499434],"normalized":false,"type":"VEC3"},{"bufferView":16,"byteOffset":0,"componentType":5126,"count":2210,"max":[0.999969,0,0.999969,1],"min":[-0.999969,-0.011223,-1,1],"normalized":false,"type":"VEC4"},{"bufferView":17,"byteOffset":0,"componentType":5126,"count":2210,"max":[0.998995,1,0.999472],"min":[-0.998995,-1,-0.998773],"normalized":false,"type":"VEC3"},{"bufferView":18,"byteOffset":0,"componentType":5126,"count":2210,"max":[1,1],"min":[0,0],"normalized":false,"type":"VEC2"},{"bufferView":19,"byteOffset":0,"componentType":5125,"count":12672,"max":[2209],"min":[0],"normalized":false,"type":"SCALAR"},{"bufferView":20,"byteOffset":0,"componentType":5126,"count":24,"max":[0.125,0.2,1],"min":[-0.125,-0.2,-1],"normalized":false,"type":"VEC3"},{"bufferView":21,"byteOffset":0,"componentType":5126,"count":24,"max":[0.999969,0,0.999969,1],"min":[-0.999969,-0.007936,-1,1],"normalized":false,"type":"VEC4"},{"bufferView":22,"byteOffset":0,"componentType":5126,"count":24,"max":[1,1,1],"min":[-1,-1,-1],"normalized":false,"type":"VEC3"},{"bufferView":23,"byteOffset":0,"componentType":5126,"count":24,"max":[1,1],"min":[0,0],"normalized":false,"type":"VEC2"},{"bufferView":24,"byteOffset":0,"componentType":5125,"count":36,"max":[23],"min":[0],"normalized":false,"type":"SCALAR"},{"bufferView":25,"byteOffset":0,"componentType":5126,"count":24,"max":[0.125,0.2,1],"min":[-0.125,-0.2,-1],"normalized":false,"type":"VEC3"},{"bufferView":26,"byteOffset":0,"componentType":5126,"count":24,"max":[0.999969,0,0.999969,1],"min":[-0.999969,-0.007936,-1,1],"normalized":false,"type":"VEC4"},{"bufferView":27,"byteOffset":0,"componentType":5126,"count":24,"max":[1,1,1],"min":[-1,-1,-1],"normalized":false,"type":"VEC3"},{"bufferView":28,"byteOffset":0,"componentType":5126,"count":24,"max":[1,1],"min":[0,0],"normalized":false,"type":"VEC2"},{"bufferView":29,"byteOffset":0,"componentType":5125,"count":36,"max":[23],"min":[0],"normalized":false,"type":"SCALAR"},{"bufferView":30,"byteOffset":0,"componentType":5126,"count":24,"max":[0.125,0.2,1],"min":[-0.125,-0.2,-1],"normalized":false,"type":"VEC3"},{"bufferView":31,"byteOffset":0,"componentType":5126,"count":24,"max":[0.999969,0,0.999969,1],"min":[-0.999969,-0.007936,-1,1],"normalized":false,"type":"VEC4"},{"bufferView":32,"byteOffset":0,"componentType":5126,"count":24,"max":[1,1,1],"min":[-1,-1,-1],"normalized":false,"type":"VEC3"},{"bufferView":33,"byteOffset":0,"componentType":5126,"count":24,"max":[1,1],"min":[0,0],"normalized":false,"type":"VEC2"},{"bufferView":34,"byteOffset":0,"componentType":5125,"count":36,"max":[23],"min":[0],"normalized":false,"type":"SCALAR"},{"bufferView":35,"byteOffset":0,"componentType":5126,"count":20,"max":[0.5,0.25,0.5],"min":[-0.5,-0.25,-0.5],"normalized":false,"type":"VEC3"},{"bufferView":36,"byteOffset":0,"componentType":5126,"count":20,"max":[0.999969,0,0.999969,1],"min":[-0.999969,-0.007936,-1,1],"normalized":false,"type":"VEC4"},{"bufferView":37,"byteOffset":0,"componentType":5126,"count":20,"max":[0.707062,0.707062,1],"min":[-0.707062,-1,-1],"normalized":false,"type":"VEC3"},{"bufferView":38,"byteOffset":0,"componentType":5126,"count":20,"max":[1,1],"min":[0,0],"normalized":false,"type":"VEC2"},{"bufferView":39,"byteOffset":0,"componentType":5125,"count":24,"max":[19],"min":[2],"normalized":false,"type":"SCALAR"}],"asset":{"generator":"Godot Engine v3.5.1.stable.official@6fed1ffa313c6760fa88b368ae580378daaef0f0","version":"2.0"},"bufferViews":[{"buffer":0,"byteLength":6264,"byteOffset":0},{"buffer":0,"byteLength":8352,"byteOffset":6264},{"buffer":0,"byteLength":6264,"byteOffset":14616},{"buffer":0,"byteLength":4176,"byteOffset":20880},{"buffer":0,"byteLength":9216,"byteOffset":25056},{"buffer":0,"byteLength":6264,"byteOffset":34272},{"buffer":0,"byteLength":8352,"byteOffset":40536},{"buffer":0,"byteLength":6264,"byteOffset":48888},{"buffer":0,"byteLength":4176,"byteOffset":55152},{"buffer":0,"byteLength":9216,"byteOffset":59328},{"buffer":0,"byteLength":26520,"byteOffset":68544},{"buffer":0,"byteLength":35360,"byteOffset":95064},{"buffer":0,"byteLength":26520,"byteOffset":130424},{"buffer":0,"byteLength":17680,"byteOffset":156944},{"buffer":0,"byteLength":50688,"byteOffset":174624},{"buffer":0,"byteLength":26520,"byteOffset":225312},{"buffer":0,"byteLength":35360,"byteOffset":251832},{"buffer":0,"byteLength":26520,"byteOffset":287192},{"buffer":0,"byteLength":17680,"byteOffset":313712},{"buffer":0,"byteLength":50688,"byteOffset":331392},{"buffer":0,"byteLength":288,"byteOffset":382080},{"buffer":0,"byteLength":384,"byteOffset":382368},{"buffer":0,"byteLength":288,"byteOffset":382752},{"buffer":0,"byteLength":192,"byteOffset":383040},{"buffer":0,"byteLength":144,"byteOffset":383232},{"buffer":0,"byteLength":288,"byteOffset":383376},{"buffer":0,"byteLength":384,"byteOffset":383664},{"buffer":0,"byteLength":288,"byteOffset":384048},{"buffer":0,"byteLength":192,"byteOffset":384336},{"buffer":0,"byteLength":144,"byteOffset":384528},{"buffer":0,"byteLength":288,"byteOffset":384672},{"buffer":0,"byteLength":384,"byteOffset":384960},{"buffer":0,"byteLength":288,"byteOffset":385344},{"buffer":0,"byteLength":192,"byteOffset":385632},{"buffer":0,"byteLength":144,"byteOffset":385824},{"buffer":0,"byteLength":240,"byteOffset":385968},{"buffer":0,"byteLength":320,"byteOffset":386208},{"buffer":0,"byteLength":240,"byteOffset":386528},{"buffer":0,"byteLength":160,"byteOffset":386768},{"buffer":0,"byteLength":96,"byteOffset":386928}],"buffers":[{"byteLength":387024,"uri":"TurretRef0.bin"}],"extensionsRequired":["KHR_texture_transform"],"extensionsUsed":["KHR_lights_punctual","KHR_texture_transform"],"materials":[{"alphaMode":"BLEND","pbrMetallicRoughness":{"baseColorFactor":[0.214041,1,0,0.5],"metallicFactor":0,"roughnessFactor":1}}],"meshes":[{"extras":{"targetNames":[]},"primitives":[{"attributes":{"NORMAL":2,"POSITION":0,"TANGENT":1,"TEXCOORD_0":3},"indices":4,"mode":4}]},{"extras":{"targetNames":[]},"primitives":[{"attributes":{"NORMAL":7,"POSITION":5,"TANGENT":6,"TEXCOORD_0":8},"indices":9,"mode":4}]},{"extras":{"targetNames":[]},"primitives":[{"attributes":{"NORMAL":12,"POSITION":10,"TANGENT":11,"TEXCOORD_0":13},"indices":14,"mode":4}]},{"extras":{"targetNames":[]},"primitives":[{"attributes":{"NORMAL":17,"POSITION":15,"TANGENT":16,"TEXCOORD_0":18},"indices":19,"material":0,"mode":4}]},{"extras":{"targetNames":[]},"primitives":[{"attributes":{"NORMAL":22,"POSITION":20,"TANGENT":21,"TEXCOORD_0":23},"indices":24,"mode":4}]},{"extras":{"targetNames":[]},"primitives":[{"attributes":{"NORMAL":27,"POSITION":25,"TANGENT":26,"TEXCOORD_0":28},"indices":29,"mode":4}]},{"extras":{"targetNames":[]},"primitives":[{"attributes":{"NORMAL":32,"POSITION":30,"TANGENT":31,"TEXCOORD_0":33},"indices":34,"mode":4}]},{"extras":{"targetNames":[]},"primitives":[{"attributes":{"NORMAL":37,"POSITION":35,"TANGENT":36,"TEXCOORD_0":38},"indices":39,"mode":4}]}],"nodes":[{"children":[1,2,3],"extensions":{},"name":"Pivot","translation":[0,-4,0]},{"extensions":{},"mesh":0,"name":"Base","translation":[0,1,0]},{"extensions":{},"mesh":1,"name":"Body","rotation":[0,0.346261,0,0.938138],"translation":[0,2,0]},{"children":[4,5,6,8,10,12],"extensions":{},"name":"Rotate","rotation":[0,1,0,0],"translation":[0,2.5,0]},{"extensions":{},"mesh":2,"name":"AimJoint","translation":[0,-0.1,0]},{"extensions":{},"mesh":3,"name":"EyeMesh","translation":[0,0.6,0]},{"children":[7],"extensions":{},"mesh":4,"name":"Gun1","translation":[0.5,0.4,0.4]},{"extensions":{},"name":"AimCast","translation":[0,0,-1]},{"children":[9],"extensions":{},"mesh":5,"name":"Gun2","translation":[-0.5,0.4,0.4]},{"extensions":{},"name":"AimCast2","translation":[-0,0,-1]},{"children":[11],"extensions":{},"mesh":6,"name":"Gun3","translation":[0,1,0.4]},{"extensions":{},"name":"AimCast3","translation":[-0,0,-1]},{"extensions":{},"mesh":7,"name":"HeadMount","rotation":[-0.707107,0,0,0.707107],"translation":[0,0.4,0]}],"scene":0,"scenes":[{"nodes":[0]}]}